# AST/ASF file generated using VICON BodyLanguage
# -----------------------------------------------
:version 1.10
:name VICON
:units
  mass 1.0
  length 0.45
  angle deg
:documentation
   .ast/.asf automatically generated from VICON data using
   VICON BodyBuilder and BodyLanguage model FoxedUp or BRILLIANT.MOD
:root
   order TX TY TZ RX RY RZ
   axis XYZ
   position 0 0 0  
   orientation 0 0 0 
:bonedata
  begin
     id 1 
     name lhipjoint
     direction 0.537252 -0.787203 0.302774 
     length 2.29576 
     axis 0 0 0  XYZ
  end
  begin
     id 2 
     name lfemur
     direction 0.34202 -0.939693 0  
     length 7.31114  
     axis 0 0 20  XYZ
    dof rx ry rz
    limits (-160.0 20.0)
           (-70.0 70.0)
           (-60.0 70.0)
  end
  begin
     id 3 
     name ltibia
     direction 0.34202 -0.939693 0   
     length 8.36008   
     axis 0 0 20   XYZ
    dof rx
    limits (-10.0 170.0)
  end
  begin
     id 4 
     name lfoot
     direction 0.0969116 -0.266263 0.959016   
     length 2.16704   
     axis -90 7.62852e-016 20   XYZ
    dof rx rz
    limits (-45.0 90.0)
           (-70.0 20.0)
  end
  begin
     id 5 
     name ltoes
     direction 1.53563e-011 -4.21779e-011 1   
     length 1.08338   
     axis -90 7.62852e-016 20   XYZ
    dof rx
    limits (-90.0 20.0)
  end
  begin
     id 6 
     name rhipjoint
     direction -0.588228 -0.754791 0.290308   
     length 2.39434  
     axis 0 0 0  XYZ 
  end
  begin
     id 7 
     name rfemur
     direction -0.34202 -0.939693 0   
     length 7.45207   
     axis 0 0 -20   XYZ
    dof rx ry rz
    limits (-160.0 20.0)
           (-70.0 70.0)
           (-70.0 60.0)
  end
  begin
     id 8 
     name rtibia
     direction -0.34202 -0.939693 0   
     length 8.03565   
     axis 0 0 -20   XYZ
    dof rx
    limits (-10.0 170.0)
 end
 begin
     id 9 
     name rfoot
     direction -0.107009 -0.294004 0.949795   
     length 2.11509  
     axis -90 -7.62852e-016 -20   XYZ
    dof rx rz
    limits (-45.0 90.0)
           (-20.0 70.0)
  end
  begin
     id 10 
     name rtoes
     direction -1.53533e-011 -4.22004e-011 1   
     length 1.05493   
     axis -90 -7.62852e-016 -20   XYZ
    dof rx
    limits (-90.0 20.0)
  end
  begin
     id 11 
     name lowerback
     direction -0.0115208 0.997969 -0.0626515   
     length 2.03153   
     axis 0 0 0   XYZ
    dof rx ry rz
    limits (-20.0 45.0)
           (-30.0 30.0)
           (-30.0 30.0)
  end
  begin
     id 12 
     name upperback
     direction -0.00423475 0.999974 -0.00583614   
     length 2.03619   
     axis 0 0 0   XYZ
    dof rx ry rz
    limits (-20.0 45.0)
           (-30.0 30.0)
           (-30.0 30.0)
  end
  begin
     id 13 
     name thorax
     direction 0.00289429 0.999728 0.0231573   
     length 2.03921   
     axis 0 0 0   XYZ
    dof rx ry rz
    limits (-20.0 45.0)
           (-30.0 30.0)
           (-30.0 30.0)
  end
  begin
     id 14 
     name lowerneck
     direction 0.0188995 0.987777 0.154721   
     length 1.78836   
     axis 0 0 0   XYZ
    dof rx ry rz
    limits (-20.0 45.0)
           (-30.0 30.0)
           (-30.0 30.0)
  end
  begin
     id 15 
     name upperneck
     direction -0.00612612 0.992995 -0.118   
     length 1.81789   
     axis 0 0 0   XYZ
    dof rx ry rz
    limits (-20.0 45.0)
           (-30.0 30.0)
           (-30.0 30.0)
  end
  begin
     id 16
     name head
     direction -0.00420226 0.998397 -0.0564482  
     length 1.82234  
     axis 0 0 0   XYZ
    dof rx ry rz
    limits (-20.0 45.0)
           (-30.0 30.0)
           (-30.0 30.0)
  end
  begin
     id 17 
     name lclavicle
     direction 0.916488 0.396539 0.0529676  
     length 3.51732  
     axis 0 0 0   XYZ
    dof ry rz
    limits (-20.0 10.0)
           (0.0 20.0)
  end
  begin
     id 18 
     name lhumerus
     direction 1 -4.4896e-011 8.36962e-028   
     length 5.45077   
     axis 180 -30 -90   XYZ
    dof rx ry rz
    limits (-60.0 90.0)
           (-90.0 90.0)
           (-90.0 90.0)
  end
  begin
     id 19
     name lradius
     direction 1 -4.48962e-011 3.01407e-027   
     length 3.05488   
     axis 180 -30 -90   XYZ
    dof rx
    limits (-10.0 170.0)
  end
  begin
     id 20
     name lwrist
     direction 1 -4.49002e-011 4.72961e-027   
     length 1.52744   
     axis -2.72261e-015 90 90   XYZ
    dof ry
    limits (-180.0 0.0)
 end
  begin
     id 21 
     name lhand
     direction 1 -4.4899e-011 9.45681e-027   
     length 0.638818   
     axis -6.0311e-015 90 90   XYZ
    dof rx rz
    limits (-90.0 90.0)
           (-45.0 45.0)
  end
  begin
     id 22 
     name lfingers
     direction 1 -4.48871e-011 1.88632e-026   
     length 0.515032   
     axis -1.20625e-014 90 90   XYZ
    dof rx
    limits (0.0 90.0)
  end
  begin
     id 23
     name lthumb
     direction 0.707107 -6.34964e-011 0.707107   
     length 0.739485   
     axis -90 45 6.32835e-014   XYZ
    dof rx rz
    limits (-45.0 45.0)
           (-45.0 45.0)
  end
  begin
     id 24 
     name rclavicle
     direction -0.949427 0.303202 0.0815894   
     length 3.76167  
     axis 0 0 0   XYZ 
    dof ry rz
    limits (-10.0 20.0)
           (-20.0 0.0)
  end
  begin
     id 25 
     name rhumerus
     direction -1 -4.48971e-011 -6.43969e-018  
     length 4.88702   
     axis 180 30 90   XYZ
    dof rx ry rz
    limits (-90.0 60.0)
           (-90.0 90.0)
           (-90.0 90.0)
  end
  begin
     id 26 
     name rradius
     direction -1 -4.48987e-011 5.46662e-027   
     length 3.22603   
     axis 180 30 90   XYZ
    dof rx
    limits (-10.0 170.0)
  end
  begin
     id 27 
     name rwrist
     direction -1 -4.48956e-011 4.72476e-027   
     length 1.61302   
     axis -2.72261e-015 -90 -90   XYZ
    dof ry
    limits (-180.0 0.0)
  end
  begin
     id 28
     name rhand
     direction -1 -4.4889e-011 9.43571e-027   
     length 0.716293   
     axis -6.0311e-015 -90 -90   XYZ
    dof rx rz
    limits (-90.0 90.0)
           (-45.0 45.0)
  end
  begin
     id 29
     name rfingers
     direction -1 -4.48887e-011 1.88701e-026   
     length 0.577494   
     axis -1.20625e-014 -90 -90   XYZ
    dof rx
    limits (0.0 90.0)
  end
  begin
     id 30
     name rthumb
     direction -0.707107 -6.34825e-011 0.707107   
     length 0.829169   
     axis -90 -45 -6.32835e-014   XYZ
    dof rx rz
    limits (-45.0 45.0)
           (-45.0 45.0)
  end
:hierarchy
  begin
    root lhipjoint rhipjoint lowerback
    lhipjoint lfemur
    lfemur ltibia
    ltibia lfoot
    lfoot ltoes
    rhipjoint rfemur
    rfemur rtibia
    rtibia rfoot
    rfoot rtoes
    lowerback upperback
    upperback thorax
    thorax lowerneck lclavicle rclavicle
    lowerneck upperneck
    upperneck head
    lclavicle lhumerus
    lhumerus lradius
    lradius lwrist
    lwrist lhand lthumb
    lhand lfingers
    rclavicle rhumerus
    rhumerus rradius
    rradius rwrist
    rwrist rhand rthumb
    rhand rfingers
  end

#!OML:ASF F:\VICON\USERDATA\INSTALL\rory3\rory3.ASF
:FULLY-SPECIFIED
:DEGREES
114
root 1.4302 18.5512 0.733149 168.222 83.8617 155.767
lowerback -8.8173 -1.29828 -1.47955
upperback -3.26403 -1.49301 -0.275513
thorax 1.59262 -0.695798 0.398483
lowerneck -17.4016 -1.20377 0.503596
upperneck 17.5418 -1.55364 -0.814425
head 8.30938 -0.759192 -0.540356
rclavicle -6.40149e-015 6.4605e-015
rhumerus -34.7903 13.7953 -95.9518
rradius 34.0242
rwrist 0.160798
rhand -19.0893 5.1191
rfingers 7.12502
rthumb 7.21896 -24.7378
lclavicle -6.40149e-015 6.4605e-015
lhumerus -37.148 -17.5587 92.1353
lradius 42.8179
lwrist 13.4665
lhand -10.0344 25.0721
lfingers 7.12502
lthumb 15.9505 54.4353
rfemur -9.98032 -25.7915 20.1134
rtibia 5.48627
rfoot -4.3905 19.38
rtoes -10.1314
lfemur -15.7801 5.76207 -18.7937
ltibia 14.9605
lfoot -10.9524 -3.90847
ltoes -29.3965
115
root 1.42888 18.5523 0.730005 168.237 83.8233 155.691
lowerback -8.8987 -1.32743 -1.44761
upperback -3.31082 -1.53019 -0.297848
thorax 1.58836 -0.713214 0.352647
lowerneck -17.4282 -1.20808 0.440611
upperneck 17.6324 -1.56698 -0.693411
head 8.34623 -0.756162 -0.491772
rclavicle -1.09425e-014 1.46107e-014
rhumerus -34.709 13.7547 -95.924
rradius 33.759
rwrist 0.319215
rhand -19.0227 5.10946
rfingers 7.12502
rthumb 7.28323 -24.7452
lclavicle -1.09425e-014 1.46107e-014
lhumerus -37.1182 -17.5328 92.0804
lradius 42.7603
lwrist 13.441
lhand -10.7348 24.7078
lfingers 7.12502
lthumb 15.276 54.1237
rfemur -10.0995 -25.8297 20.128
rtibia 5.5129
rfoot -4.42249 19.3833
rtoes -10.1673
lfemur -15.9082 5.80288 -18.8473
ltibia 14.9902
lfoot -10.8992 -3.97303
ltoes -29.1772
116
root 1.43356 18.5537 0.725248 168.044 83.9621 155.492
lowerback -8.98536 -1.28973 -1.35691
upperback -3.31839 -1.4848 -0.318836
thorax 1.62467 -0.690797 0.283026
lowerneck -17.4914 -1.2084 0.363391
upperneck 17.8076 -1.57047 -0.570574
head 8.41841 -0.748401 -0.439705
rclavicle -7.03822e-015 1.78906e-015
rhumerus -34.6114 13.6305 -95.8607
rradius 33.4376
rwrist 0.587911
rhand -18.9457 5.27998
rfingers 7.12502
rthumb 7.35753 -24.5721
lclavicle -7.03822e-015 1.78906e-015
lhumerus -37.1116 -17.577 92.0558
lradius 42.7469
lwrist 13.4697
lhand -11.574 24.3785
lfingers 7.12502
lthumb 14.4675 53.8541
rfemur -10.1033 -25.6929 20.1202
rtibia 5.51432
rfoot -4.50165 19.3634
rtoes -10.6272
lfemur -15.8923 5.88501 -18.8502
ltibia 15.0253
lfoot -10.9783 -3.89775
ltoes -29.4238
117
root 1.43575 18.5543 0.722529 168.556 84.0845 156.056
lowerback -8.9855 -1.27564 -1.23009
upperback -3.31711 -1.47788 -0.295724
thorax 1.62342 -0.688012 0.236392
lowerneck -17.5236 -1.21134 0.297418
upperneck 17.9314 -1.57118 -0.494774
head 8.46729 -0.74396 -0.40433
rclavicle -6.34247e-015 -4.96962e-016
rhumerus -34.5776 13.5967 -95.8314
rradius 33.1923
rwrist 0.689918
rhand -19.1169 5.32347
rfingers 7.12502
rthumb 7.19234 -24.5343
lclavicle -6.34247e-015 -4.96962e-016
lhumerus -37.1015 -17.3961 91.992
lradius 42.7189
lwrist 13.3157
lhand -11.5313 24.3669
lfingers 7.12502
lthumb 14.5086 53.8396
rfemur -10.0057 -25.5881 20.1673
rtibia 5.44451
rfoot -4.52849 19.3526
rtoes -11.0326
lfemur -15.8322 5.93225 -18.7464
ltibia 15.0547
lfoot -11.0015 -3.83478
ltoes -29.3366
118
root 1.43698 18.5537 0.719968 168.277 84.1404 155.847
lowerback -8.92107 -1.28392 -1.25289
upperback -3.32572 -1.489 -0.275219
thorax 1.58031 -0.693346 0.270654
lowerneck -17.5289 -1.1952 0.312381
upperneck 18.0102 -1.55163 -0.494948
head 8.49489 -0.732841 -0.404873
rclavicle 1.84901e-014 2.68359e-015
rhumerus -34.5455 13.5206 -95.7442
rradius 32.922
rwrist 0.882366
rhand -19.0602 5.35938
rfingers 7.12502
rthumb 7.24702 -24.4965
lclavicle 1.84901e-014 2.68359e-015
lhumerus -37.0932 -17.3427 91.9763
lradius 42.6569
lwrist 13.2522
lhand -11.4471 24.4501
lfingers 7.12502
lthumb 14.5898 53.917
rfemur -9.86415 -25.5357 20.0951
rtibia 5.36421
rfoot -4.45672 19.3279
rtoes -11.068
lfemur -15.7464 6.08041 -18.7627
ltibia 15.0775
lfoot -11.0333 -3.91164
ltoes -29.3016
